<svg xmlns="http://www.w3.org/2000/svg" xmlns:xlink="http://www.w3.org/1999/xlink" width="1680" height="161" viewBox="0 0 1680 161">
	<defs>
		<style>.a{fill:url(#a);}.b{fill:#f8f9fa;opacity:0.049;}.c{fill:#409da0;}.c,.e{font-size:16px;}.c,.e,.f{font-family:AdelleSansARA-Regular, Adelle Sans ARA;}.d{fill:rgba(0,0,0,0.12);}.e{fill:#6c757d;}.f{fill:#0d8f75;font-size:14px;}.g{fill:#214570;font-size:28px;font-family:AdelleSansARA-Semibold, Adelle Sans ARA;font-weight:600;}</style>
		<linearGradient id="a" x1="0.481" y1="2.119" x2="1.021" y2="2.145" gradientUnits="objectBoundingBox">
			<stop offset="0" stop-opacity="0.122"/>
			<stop offset="1" stop-color="#545454" stop-opacity="0"/>
		</linearGradient>
	</defs>
	<path class="a" d="M1704.643,294.746l-.541-.049a48.68,48.68,0,0,1-44.029-44.215l-.8-.072,1.606-1.213.037.444A48.685,48.685,0,0,1,1704.6,294.2ZM1661,250.569a47.771,47.771,0,0,0,42.646,43.164A47.77,47.77,0,0,0,1661,250.569Zm-61.855,44.177-.541-.049a48.679,48.679,0,0,1-44.028-44.215l-.8-.072,1.607-1.213.037.444a48.689,48.689,0,0,1,43.682,44.562Zm-43.646-44.177a47.769,47.769,0,0,0,42.645,43.164A47.774,47.774,0,0,0,1555.494,250.569Zm-53.755,44.177.047-.543a48.683,48.683,0,0,1,44.064-44.6l.541-.049-.047.543a48.684,48.684,0,0,1-44.064,44.6Zm43.648-44.177a47.772,47.772,0,0,0-42.646,43.164A47.772,47.772,0,0,0,1545.388,250.569Zm-149.152,44.177.047-.543a48.683,48.683,0,0,1,44.065-44.6l.54-.049-.046.543a48.687,48.687,0,0,1-44.065,44.6Zm43.65-44.177a47.774,47.774,0,0,0-42.648,43.164A47.776,47.776,0,0,0,1439.886,250.569Zm-149.152,44.177.046-.543a48.683,48.683,0,0,1,44.06-44.6l.54-.049-.044.543a48.684,48.684,0,0,1-44.063,44.6Zm43.647-44.18a47.766,47.766,0,0,0-42.646,43.166A47.771,47.771,0,0,0,1334.382,250.566Zm-149.152,44.18.047-.543a48.683,48.683,0,0,1,44.066-44.6l.54-.049-.046.543a48.687,48.687,0,0,1-44.065,44.6Zm43.65-44.177a47.77,47.77,0,0,0-42.648,43.164A47.776,47.776,0,0,0,1228.88,250.569Zm-51.752,44.177-.541-.049a48.681,48.681,0,0,1-44.029-44.215l-1.22-.111,2.037-1.024.024.293a48.688,48.688,0,0,1,43.682,44.562Zm-43.647-44.177a47.772,47.772,0,0,0,42.645,43.164A47.771,47.771,0,0,0,1133.481,250.569Zm-53.753,44.177.045-.543a48.684,48.684,0,0,1,44.064-44.6l.541-.049-.047.543a48.684,48.684,0,0,1-44.063,44.6Zm43.647-44.177a47.77,47.77,0,0,0-42.645,43.164A47.771,47.771,0,0,0,1123.376,250.569Zm-51.752,44.177-.539-.049a48.683,48.683,0,0,1-44.029-44.215l-.8-.072,1.607-1.213.037.444a48.685,48.685,0,0,1,43.682,44.562Zm-43.647-44.177a47.775,47.775,0,0,0,42.646,43.164A47.771,47.771,0,0,0,1027.977,250.569Zm-53.753,44.177.046-.543a48.683,48.683,0,0,1,44.064-44.6l.54-.049-.046.543a48.685,48.685,0,0,1-44.064,44.6Zm43.649-44.177a47.772,47.772,0,0,0-42.647,43.164A47.774,47.774,0,0,0,1017.874,250.569Zm-51.751,44.177-.541-.049a48.679,48.679,0,0,1-44.029-44.215l-1.219-.111,2.037-1.024.024.293A48.687,48.687,0,0,1,966.076,294.2Zm-43.646-44.177a47.768,47.768,0,0,0,42.645,43.164A47.771,47.771,0,0,0,922.477,250.569Zm-53.755,44.177.046-.543a48.682,48.682,0,0,1,44.064-44.6l.541-.049-.047.543a48.686,48.686,0,0,1-44.064,44.6Zm43.649-44.177a47.772,47.772,0,0,0-42.648,43.164A47.777,47.777,0,0,0,912.371,250.569Zm-51.753,44.177-.54-.049a48.681,48.681,0,0,1-44.029-44.215l-.8-.072,1.607-1.213.037.444A48.686,48.686,0,0,1,860.573,294.2Zm-43.646-44.177a47.769,47.769,0,0,0,42.645,43.164A47.771,47.771,0,0,0,816.973,250.569Zm-61.858,44.177-.54-.049a48.68,48.68,0,0,1-44.027-44.215l-1.219-.111,2.036-1.024.025.293a48.685,48.685,0,0,1,43.68,44.562Zm-43.645-44.177a47.77,47.77,0,0,0,42.643,43.164A47.77,47.77,0,0,0,711.471,250.569Zm-53.754,44.177.046-.543a48.682,48.682,0,0,1,44.064-44.6l.541-.049-.047.543a48.685,48.685,0,0,1-44.063,44.6Zm43.648-44.177a47.772,47.772,0,0,0-42.647,43.164A47.774,47.774,0,0,0,701.364,250.569Zm-51.751,44.177-.541-.049a48.678,48.678,0,0,1-44.029-44.215l-1.014-.092,1.825-1.1.029.353A48.688,48.688,0,0,1,649.567,294.2Zm-43.647-44.177a47.77,47.77,0,0,0,42.645,43.164A47.774,47.774,0,0,0,605.966,250.569Zm-61.857,44.177-.54-.049a48.686,48.686,0,0,1-44.061-44.6l.339-.029-.067-.429.581-.252.022.253A48.685,48.685,0,0,1,544.064,294.2Zm-43.645-44.177a47.773,47.773,0,0,0,42.644,43.164A47.771,47.771,0,0,0,500.464,250.569ZM446.71,294.746l.045-.543a48.684,48.684,0,0,1,44.066-44.6l.539-.049-.047.543a48.683,48.683,0,0,1-44.063,44.6Zm43.647-44.177a47.771,47.771,0,0,0-42.646,43.164A47.772,47.772,0,0,0,490.358,250.569Zm-51.751,44.177-.541-.049a48.683,48.683,0,0,1-44.06-44.6l.339-.029-.068-.429.583-.252.021.253a48.685,48.685,0,0,1,43.68,44.562Zm-43.646-44.177a47.77,47.77,0,0,0,42.644,43.164A47.771,47.771,0,0,0,394.961,250.569Zm-53.754,44.177.045-.543a48.683,48.683,0,0,1,44.066-44.6l.54-.049-.046.543a48.686,48.686,0,0,1-44.065,44.6Zm43.648-44.177a47.771,47.771,0,0,0-42.646,43.164A47.773,47.773,0,0,0,384.855,250.569ZM333.1,294.746l-.541-.049a48.684,48.684,0,0,1-44.06-44.6l.339-.029-.067-.429.582-.252.021.253a48.685,48.685,0,0,1,43.68,44.562Zm-43.646-44.177A47.773,47.773,0,0,0,332.1,293.733,47.77,47.77,0,0,0,289.458,250.569ZM235.7,294.746l.046-.543a48.684,48.684,0,0,1,44.065-44.6l.54-.049-.047.543a48.684,48.684,0,0,1-44.063,44.6Zm43.647-44.177a47.77,47.77,0,0,0-42.645,43.164A47.773,47.773,0,0,0,279.352,250.569ZM227.6,294.746l-.541-.049A48.683,48.683,0,0,1,183,250.1l.339-.029-.067-.429.582-.252.021.253A48.684,48.684,0,0,1,227.554,294.2Zm-43.645-44.177A47.77,47.77,0,0,0,226.6,293.733,47.769,47.769,0,0,0,183.956,250.569Zm1423.286,44.177.046-.543a48.684,48.684,0,0,1,44.065-44.6l.54-.049-.046.543a48.683,48.683,0,0,1-44.064,44.6Zm43.65-44.177a47.775,47.775,0,0,0-42.649,43.164A47.774,47.774,0,0,0,1650.892,250.569Zm-157.255,44.177-.541-.049a48.678,48.678,0,0,1-44.028-44.215l-.8-.072,1.606-1.213.037.444a48.687,48.687,0,0,1,43.682,44.562Zm-43.646-44.177a47.768,47.768,0,0,0,42.645,43.164A47.774,47.774,0,0,0,1449.991,250.569Zm-61.856,44.177-.541-.049a48.685,48.685,0,0,1-44.066-44.6l-.047-.544.542.05a48.684,48.684,0,0,1,44.065,44.6Zm-43.65-44.177a47.771,47.771,0,0,0,42.647,43.164A47.773,47.773,0,0,0,1344.485,250.569Zm-61.853,44.177-.541-.049a48.678,48.678,0,0,1-44.027-44.215l-.8-.072,1.606-1.213.038.444a48.687,48.687,0,0,1,43.681,44.562Zm-43.646-44.177a47.768,47.768,0,0,0,42.645,43.164A47.774,47.774,0,0,0,1238.985,250.569ZM763.218,294.746l.046-.543a48.684,48.684,0,0,1,44.065-44.6l.541-.049-.047.543a48.684,48.684,0,0,1-44.064,44.6Zm43.649-44.177a47.774,47.774,0,0,0-42.647,43.164A47.772,47.772,0,0,0,806.867,250.569ZM552.212,294.746l.046-.543a48.684,48.684,0,0,1,44.067-44.6l.54-.049-.048.543a48.683,48.683,0,0,1-44.064,44.6Zm43.649-44.177a47.774,47.774,0,0,0-42.647,43.164A47.773,47.773,0,0,0,595.861,250.569ZM130.2,294.745l.045-.543a48.683,48.683,0,0,1,44.064-44.6l.54-.049-.047.543a48.686,48.686,0,0,1-44.062,44.6Zm43.646-44.176A47.769,47.769,0,0,0,131.2,293.732,47.774,47.774,0,0,0,173.849,250.569Zm-51.776,44.176-.54-.049a48.684,48.684,0,0,1-44.064-44.6l-.046-.544.54.049a48.686,48.686,0,0,1,44.064,44.6ZM78.426,250.568a47.771,47.771,0,0,0,42.646,43.164A47.774,47.774,0,0,0,78.426,250.568ZM24.645,294.745l.045-.543a48.683,48.683,0,0,1,44.064-44.6l.54-.049-.047.543a48.686,48.686,0,0,1-44.062,44.6Zm43.646-44.176a47.769,47.769,0,0,0-42.645,43.163A47.774,47.774,0,0,0,68.291,250.569Zm1267.09-9.168-.54-.049a48.686,48.686,0,0,1-44.06-44.6l-.046-.544.54.049a48.683,48.683,0,0,1,44.06,44.6Zm-43.645-44.177a47.771,47.771,0,0,0,42.643,43.163A47.772,47.772,0,0,0,1291.736,197.224ZM1659.995,241.4l.046-.543a48.685,48.685,0,0,1,44.064-44.6l.541-.049-.046.544a48.682,48.682,0,0,1-44.064,44.6Zm43.648-44.177A47.774,47.774,0,0,0,1661,240.388,47.772,47.772,0,0,0,1703.643,197.224Zm-51.75,44.177-.54-.049a48.685,48.685,0,0,1-44.065-44.6l-.046-.544.541.049a48.683,48.683,0,0,1,44.063,44.6Zm-43.648-44.177a47.772,47.772,0,0,0,42.647,43.164A47.772,47.772,0,0,0,1608.245,197.224ZM1554.491,241.4l.046-.543a48.683,48.683,0,0,1,44.063-44.6l.541-.049-.046.544a48.685,48.685,0,0,1-44.064,44.6Zm43.649-44.177a47.773,47.773,0,0,0-42.647,43.164A47.774,47.774,0,0,0,1598.14,197.224Zm-51.75,44.177-.541-.049a48.685,48.685,0,0,1-44.064-44.6l-.047-.544.541.049a48.683,48.683,0,0,1,44.064,44.6Zm-43.649-44.177a47.774,47.774,0,0,0,42.646,43.164A47.772,47.772,0,0,0,1502.742,197.224ZM1448.989,241.4l.045-.543a48.684,48.684,0,0,1,44.064-44.6l.541-.049-.046.544a48.684,48.684,0,0,1-44.064,44.6Zm43.648-44.177a47.772,47.772,0,0,0-42.647,43.164A47.772,47.772,0,0,0,1492.637,197.224Zm-51.75,44.177-.54-.049a48.685,48.685,0,0,1-44.065-44.6l-.047-.544.541.049a48.686,48.686,0,0,1,44.065,44.6Zm-43.649-44.177a47.776,47.776,0,0,0,42.648,43.164A47.776,47.776,0,0,0,1397.238,197.224ZM1343.484,241.4l.047-.543a48.683,48.683,0,0,1,44.064-44.6l.541-.049-.047.544a48.684,48.684,0,0,1-44.064,44.6Zm43.649-44.177a47.773,47.773,0,0,0-42.647,43.164A47.773,47.773,0,0,0,1387.133,197.224ZM1237.983,241.4l.046-.543a48.682,48.682,0,0,1,44.063-44.6l.541-.049-.047.544a48.685,48.685,0,0,1-44.063,44.6Zm43.648-44.177a47.772,47.772,0,0,0-42.647,43.164A47.775,47.775,0,0,0,1281.631,197.224Zm-51.75,44.177-.54-.049a48.685,48.685,0,0,1-44.064-44.6l-.046-.544.54.049a48.686,48.686,0,0,1,44.065,44.6Zm-43.648-44.177a47.776,47.776,0,0,0,42.647,43.164A47.775,47.775,0,0,0,1186.233,197.224ZM1132.479,241.4l.047-.543a48.685,48.685,0,0,1,44.065-44.6l.541-.049-.047.544a48.684,48.684,0,0,1-44.064,44.6Zm43.649-44.177a47.774,47.774,0,0,0-42.647,43.164A47.773,47.773,0,0,0,1176.128,197.224ZM1124.379,241.4l-.541-.049a48.685,48.685,0,0,1-44.063-44.6l-.045-.544.54.049a48.682,48.682,0,0,1,44.063,44.6Zm-43.648-44.177a47.775,47.775,0,0,0,42.646,43.164A47.772,47.772,0,0,0,1080.731,197.224ZM1026.978,241.4l.047-.543a48.683,48.683,0,0,1,44.063-44.6l.54-.049-.046.544a48.682,48.682,0,0,1-44.063,44.6Zm43.649-44.177a47.774,47.774,0,0,0-42.648,43.164A47.773,47.773,0,0,0,1070.627,197.224ZM1018.875,241.4l-.54-.049a48.683,48.683,0,0,1-44.063-44.6l-.046-.544.541.049a48.682,48.682,0,0,1,44.063,44.6Zm-43.648-44.177a47.774,47.774,0,0,0,42.646,43.164A47.772,47.772,0,0,0,975.227,197.224ZM921.474,241.4l.046-.543a48.684,48.684,0,0,1,44.064-44.6l.541-.049-.046.544a48.684,48.684,0,0,1-44.064,44.6Zm43.649-44.177a47.772,47.772,0,0,0-42.647,43.164A47.773,47.773,0,0,0,965.123,197.224ZM913.373,241.4l-.541-.049a48.685,48.685,0,0,1-44.064-44.6l-.046-.544.54.049a48.685,48.685,0,0,1,44.064,44.6Zm-43.649-44.177a47.774,47.774,0,0,0,42.648,43.164A47.776,47.776,0,0,0,869.724,197.224ZM815.97,241.4l.046-.543a48.684,48.684,0,0,1,44.065-44.6l.54-.049-.045.544a48.684,48.684,0,0,1-44.065,44.6Zm43.65-44.177a47.775,47.775,0,0,0-42.648,43.164A47.775,47.775,0,0,0,859.62,197.224ZM807.87,241.4l-.541-.049a48.686,48.686,0,0,1-44.064-44.6l-.046-.544.54.049a48.684,48.684,0,0,1,44.064,44.6ZM764.22,197.224a47.776,47.776,0,0,0,42.647,43.164A47.772,47.772,0,0,0,764.22,197.224ZM710.469,241.4l.045-.543a48.683,48.683,0,0,1,44.063-44.6l.541-.049-.046.544a48.684,48.684,0,0,1-44.063,44.6Zm43.647-44.177a47.774,47.774,0,0,0-42.646,43.164A47.772,47.772,0,0,0,754.116,197.224ZM702.37,241.4l-.54-.049a48.684,48.684,0,0,1-44.063-44.6l-.046-.544.54.049a48.683,48.683,0,0,1,44.064,44.6Zm-43.649-44.177a47.774,47.774,0,0,0,42.648,43.164A47.774,47.774,0,0,0,658.721,197.224ZM604.968,241.4l.046-.543a48.684,48.684,0,0,1,44.065-44.6l.54-.049-.045.544a48.687,48.687,0,0,1-44.065,44.6Zm43.649-44.177a47.771,47.771,0,0,0-42.647,43.164A47.775,47.775,0,0,0,648.617,197.224ZM596.865,241.4l-.541-.049a48.687,48.687,0,0,1-44.064-44.6l-.046-.544.54.049a48.684,48.684,0,0,1,44.065,44.6Zm-43.649-44.177a47.776,47.776,0,0,0,42.647,43.164A47.771,47.771,0,0,0,553.216,197.224ZM499.463,241.4l.046-.543a48.687,48.687,0,0,1,44.064-44.6l.541-.049-.046.544A48.685,48.685,0,0,1,500,241.353Zm43.648-44.177a47.775,47.775,0,0,0-42.647,43.164A47.773,47.773,0,0,0,543.111,197.224ZM491.36,241.4l-.539-.049a48.684,48.684,0,0,1-44.064-44.6l-.046-.544.54.049a48.683,48.683,0,0,1,44.063,44.6Zm-43.647-44.177a47.774,47.774,0,0,0,42.646,43.164A47.772,47.772,0,0,0,447.713,197.224ZM393.961,241.4l.045-.543a48.684,48.684,0,0,1,44.064-44.6l.541-.049-.046.544a48.685,48.685,0,0,1-44.064,44.6Zm43.648-44.177a47.772,47.772,0,0,0-42.647,43.164A47.776,47.776,0,0,0,437.609,197.224ZM385.858,241.4l-.54-.049a48.685,48.685,0,0,1-44.064-44.6l-.046-.544.54.049a48.684,48.684,0,0,1,44.064,44.6Zm-43.647-44.177a47.772,47.772,0,0,0,42.646,43.164A47.774,47.774,0,0,0,342.211,197.224ZM288.457,241.4l.046-.543a48.684,48.684,0,0,1,44.064-44.6l.54-.049-.046.544A48.685,48.685,0,0,1,289,241.353Zm43.648-44.177a47.775,47.775,0,0,0-42.647,43.164A47.774,47.774,0,0,0,332.105,197.224ZM280.355,241.4l-.54-.049a48.684,48.684,0,0,1-44.063-44.6l-.046-.544.541.049a48.683,48.683,0,0,1,44.063,44.6Zm-43.646-44.177a47.773,47.773,0,0,0,42.645,43.164A47.773,47.773,0,0,0,236.708,197.224ZM182.955,241.4l.045-.543a48.684,48.684,0,0,1,44.064-44.6l.54-.049-.045.544a48.682,48.682,0,0,1-44.064,44.6ZM226.6,197.224a47.774,47.774,0,0,0-42.647,43.164A47.773,47.773,0,0,0,226.6,197.224ZM174.852,241.4l-.54-.049a48.685,48.685,0,0,1-44.064-44.6l-.045-.544.54.049a48.685,48.685,0,0,1,44.064,44.6ZM131.2,197.224a47.772,47.772,0,0,0,42.646,43.164A47.774,47.774,0,0,0,131.2,197.224ZM77.424,241.4l.046-.543a48.685,48.685,0,0,1,44.064-44.6l.54-.049-.046.544a48.683,48.683,0,0,1-44.064,44.6Zm43.648-44.177a47.773,47.773,0,0,0-42.646,43.164A47.772,47.772,0,0,0,121.072,197.224ZM69.294,241.4l-.54-.049a48.685,48.685,0,0,1-44.064-44.6l-.045-.544.54.049a48.685,48.685,0,0,1,44.064,44.6ZM25.647,197.224a47.772,47.772,0,0,0,42.646,43.164A47.774,47.774,0,0,0,25.647,197.224Z" transform="translate(-24.645 -196.21)"/>

</svg>